M48
; DRILL file KiCad 10.0.3 date 2026-06-07T18:58:33
; FORMAT={-:-/ absolute / metric / decimal}
; #@! TF.CreationDate,2026-06-07T18:58:33+02:00
; #@! TF.GenerationSoftware,Kicad,Pcbnew,10.0.3
; #@! TF.FileFunction,Plated,1,2,PTH
FMAT,2
METRIC
; #@! TA.AperFunction,Plated,PTH,ComponentDrill
T1C1.000
; #@! TA.AperFunction,Plated,PTH,ComponentDrill
T2C1.500
%
G90
G05
T1
X49.53Y-39.031
X49.53Y-54.281
X52.07Y-39.031
X52.07Y-54.281
X54.61Y-39.031
X54.61Y-54.281
X57.15Y-39.031
X57.15Y-54.281
X59.69Y-39.031
X59.69Y-54.281
X62.23Y-39.031
X62.23Y-54.281
X64.77Y-39.031
X64.77Y-54.281
X112.5Y-40.0
X112.5Y-54.5
X115.0Y-54.5
X117.5Y-40.0
X117.5Y-54.5
T2
X52.07Y-67.46
X54.61Y-73.81
X71.12Y-67.46
X73.66Y-73.81
X90.17Y-67.46
X92.71Y-73.81
T2
G00X109.4Y-47.65
M15
G01X109.4Y-46.35
M16
G05
G00X120.6Y-47.65
M15
G01X120.6Y-46.35
M16
G05
M30
